<svg width="32" height="32" viewBox="0 0 32 32" fill="none" xmlns="http://www.w3.org/2000/svg">
  <rect width="32" height="32" rx="6" fill="#9342FE"/>
  <g fill="white" transform="translate(2, 3)">
    <!-- Bold C -->
    <path d="M14 0C6.3 0 0 5.8 0 13s6.3 13 14 13c3 0 5.7-.9 7.8-2.4l-1.3-4c-1.6 1.2-3.8 2-6.5 2-5.2 0-8.5-3.6-8.5-8.6S8.8 4.4 14 4.4c2.7 0 4.9.8 6.5 2l1.3-4C19.7.9 17 0 14 0z"/>
    <!-- y inside C opening -->
    <path d="M19 6l-3.5 8-3.5-8H9l5.5 12L12 26h3.5l7-20H19z"/>
  </g>
</svg>
