<svg width="32" height="32" viewBox="0 0 32 32" fill="none" xmlns="http://www.w3.org/2000/svg">
  <rect width="32" height="32" rx="6" fill="#9342FE"/>
  <g fill="white">
    <!-- Bold C shape with opening for y -->
    <path d="M16 4C9.4 4 4 9.4 4 16s5.4 12 12 12c3.2 0 6-1.2 8-3.2l-3.2-3.2c-1.2 1.2-2.9 1.9-4.8 1.9-4 0-7.2-3.2-7.2-7.5S12 8.5 16 8.5c1.9 0 3.6.7 4.8 1.9l3.2-3.2C22 5.2 19.2 4 16 4z"/>
    <!-- Bold y nested inside C opening -->
    <path d="M18.5 10L16 16l-2.5-6h-3l4.5 10-2 5h3l6-15h-3.5z"/>
  </g>
</svg>
